HIERARCHY
ROOT SpineBase
{
  OFFSET 0.000000 0.000000 0.000000
  CHANNELS 6 Xposition Yposition Zposition Zrotation Xrotation Yrotation
  JOINT SpineMid
  {
    OFFSET 0.000000 30.518066 0.000000
    CHANNELS 3 Zrotation Xrotation Yrotation
    JOINT SpineShoulder
    {
      OFFSET 0.620295 22.712375 -1.646178
      CHANNELS 3 Zrotation Xrotation Yrotation
      JOINT Neck
      {
        OFFSET 0.088756 7.566815 -0.873741
        CHANNELS 3 Zrotation Xrotation Yrotation
        JOINT Head
        {
          OFFSET -4.153213 9.617454 6.649211
          CHANNELS 3 Zrotation Xrotation Yrotation
          End Site
          {
            OFFSET 0 0 0
          }
        }
      }
      JOINT ShoulderLeft
      {
        OFFSET -15.211232 -7.955580 4.814578
        CHANNELS 3 Zrotation Xrotation Yrotation
        JOINT ElbowLeft
        {
          OFFSET 3.114755 -25.955626 5.565704
          CHANNELS 3 Zrotation Xrotation Yrotation
          JOINT WristLeft
          {
            OFFSET 15.337370 -13.806588 3.901210
            CHANNELS 3 Zrotation Xrotation Yrotation
            JOINT HandLeft
            {
              OFFSET -0.136716 -4.587006 4.787049
              CHANNELS 3 Zrotation Xrotation Yrotation
              JOINT HandTipLeft
              {
                OFFSET 0.083358 -1.482077 -0.201173
                CHANNELS 3 Zrotation Xrotation Yrotation
                End Site
                {
                  OFFSET 0 0 0
                }
              }
              JOINT ThumbLeft
              {
                OFFSET -0.097557 -1.035332 -1.424251
                CHANNELS 3 Zrotation Xrotation Yrotation
                End Site
                {
                  OFFSET 0 0 0
                }
              }
            }
          }
        }
      }
      JOINT ShoulderRight
      {
        OFFSET 7.232623 -3.534652 -12.527203
        CHANNELS 3 Zrotation Xrotation Yrotation
        JOINT ElbowRight
        {
          OFFSET 10.243250 -27.170326 0.648758
          CHANNELS 3 Zrotation Xrotation Yrotation
          JOINT WristRight
          {
            OFFSET 6.100257 -20.880162 2.285761
            CHANNELS 3 Zrotation Xrotation Yrotation
            JOINT HandRight
            {
              OFFSET 0.983468 -4.904449 -0.707295
              CHANNELS 3 Zrotation Xrotation Yrotation
              JOINT HandTipRight
              {
                OFFSET -0.792967 -6.481657 -0.684066
                CHANNELS 3 Zrotation Xrotation Yrotation
                End Site
                {
                  OFFSET 0 0 0
                }
              }
              JOINT ThumbRight
              {
                OFFSET -0.962363 -1.188530 -1.866847
                CHANNELS 3 Zrotation Xrotation Yrotation
                End Site
                {
                  OFFSET 0 0 0
                }
              }
            }
          }
        }
      }
    }
  }
  JOINT HipLeft
  {
    OFFSET -5.493410 0.345389 -0.994723
    CHANNELS 3 Zrotation Xrotation Yrotation
    JOINT KneeLeft
    {
      OFFSET 11.136974 -23.274755 -9.964549
      CHANNELS 3 Zrotation Xrotation Yrotation
      JOINT AnkleLeft
      {
        OFFSET -2.733008 -30.473711 -2.060334
        CHANNELS 3 Zrotation Xrotation Yrotation
        JOINT FootLeft
        {
          OFFSET -4.295404 -4.934016 -1.159661
          CHANNELS 3 Zrotation Xrotation Yrotation
          End Site
          {
            OFFSET 0 0 0
          }
        }
      }
    }
  }
  JOINT HipRight
  {
    OFFSET 5.085635 2.378162 -5.377712
    CHANNELS 3 Zrotation Xrotation Yrotation
    JOINT KneeRight
    {
      OFFSET -9.575561 -28.240492 10.290561
      CHANNELS 3 Zrotation Xrotation Yrotation
      JOINT AnkleRight
      {
        OFFSET -1.258252 -29.576580 -1.169932
        CHANNELS 3 Zrotation Xrotation Yrotation
        JOINT FootRight
        {
          OFFSET -6.109539 -2.731899 -10.603041
          CHANNELS 3 Zrotation Xrotation Yrotation
          End Site
          {
            OFFSET 0 0 0
          }
        }
      }
    }
  }
}
MOTION
Frames: 8
Frame Time: 0.033333
34.177853 59.236189 345.032020 0.776983 -1.142802 16.290256 2.917771 2.587461 -16.243686 -0.657667 0.582587 0.049987 4.938294 6.927580 -1.186648 0.000000 0.000000 0.000000 -8.481466 -13.239348 -3.702107 -0.367511 9.128839 -0.413487 9.449706 3.351232 6.985406 -15.254586 10.159533 -0.627110 0.000000 0.000000 0.000000 0.000000 0.000000 0.000000 2.481631 2.679769 1.859579 -9.797059 -14.623671 -6.507457 21.207782 -5.078705 -3.304245 -0.172457 -1.810794 6.276668 0.000000 0.000000 0.000000 0.000000 0.000000 0.000000 -6.823028 3.223028 -13.058107 7.509116 4.280354 -3.434749 11.677640 12.732061 -19.601601 0.000000 0.000000 0.000000 -3.262758 6.116128 -18.869779 5.506157 -3.220473 2.920857 9.431670 6.934687 -52.472846 0.000000 0.000000 0.000000
33.672286 59.136011 345.695935 0.264514 -0.991253 14.128863 2.847354 2.955709 -14.129129 -0.621266 0.790506 0.032560 6.591208 4.358975 -2.477969 0.000000 0.000000 0.000000 -3.783079 -8.324873 -1.449810 -3.155866 5.864514 1.034713 9.530041 2.216017 5.088559 0.187588 -9.140960 -5.377991 0.000000 0.000000 0.000000 0.000000 0.000000 0.000000 2.182397 2.283553 2.030991 -8.805526 -15.225531 -6.622549 26.271927 -1.298931 -4.323032 -6.083691 -4.050579 7.026541 0.000000 0.000000 0.000000 0.000000 0.000000 0.000000 -5.047147 3.154885 -11.173525 6.151377 3.758484 -3.212879 12.340785 9.921995 -17.184448 0.000000 0.000000 0.000000 -2.172669 6.592405 -16.907842 5.128823 -4.275284 3.116707 10.221387 6.544907 -56.196908 0.000000 0.000000 0.000000
33.295977 59.313427 346.286472 -0.159396 -0.555843 13.417113 2.726144 3.199453 -13.458472 -0.601198 0.959832 0.017870 4.834894 -0.393985 -2.298596 0.000000 0.000000 0.000000 1.817403 -1.620630 0.964735 -5.859024 2.652545 4.016495 8.321006 0.337891 1.065963 9.267130 -19.754419 -5.568093 0.000000 0.000000 0.000000 0.000000 0.000000 0.000000 1.928053 2.188697 2.371763 -7.940755 -16.291361 -6.982335 32.399223 3.886842 -6.037857 -11.050808 -6.210182 6.596599 0.000000 0.000000 0.000000 0.000000 0.000000 0.000000 -3.497734 3.205744 -10.583349 4.767468 2.691482 -3.085368 9.166182 11.797377 -17.387797 0.000000 0.000000 0.000000 -1.044393 6.761978 -16.326116 4.418929 -5.544018 3.220191 9.430515 6.201295 -52.518822 0.000000 0.000000 0.000000
32.938583 59.589113 346.761422 -0.624711 -0.027647 13.832325 2.696721 3.334351 -13.909020 -0.658064 0.979997 -0.002806 2.898970 -4.089551 -1.776187 0.000000 0.000000 0.000000 7.016200 6.567770 2.898040 -7.144704 -0.555270 8.239653 4.812686 -1.079936 -5.595795 14.937836 -27.536531 -3.342796 0.000000 0.000000 0.000000 0.000000 0.000000 0.000000 2.535636 2.853740 2.976168 -8.368979 -18.011450 -7.870301 35.812448 9.790066 -7.446461 -8.056554 -6.757978 4.467314 0.000000 0.000000 0.000000 0.000000 0.000000 0.000000 -1.627083 3.323886 -11.134468 3.069343 1.162979 -2.927301 3.112503 17.967937 -19.605211 0.000000 0.000000 0.000000 0.088831 6.380407 -16.694955 3.687040 -5.929257 3.099879 8.423797 6.190128 -48.175496 0.000000 0.000000 0.000000
32.923403 60.000112 346.862494 -0.620833 0.912253 16.096897 2.439924 3.209737 -16.195877 -0.670470 1.037641 -0.009869 1.058893 -6.300662 -0.922448 0.000000 0.000000 0.000000 12.325816 12.370024 4.296692 -7.987423 0.823516 15.190143 0.300978 -1.494857 -15.493341 18.797961 -35.115934 0.377272 0.000000 0.000000 0.000000 0.000000 0.000000 0.000000 2.935914 3.205145 3.519920 -8.852220 -19.422745 -8.664345 38.435882 15.055271 -8.780157 -10.979635 -4.967082 1.860765 0.000000 0.000000 0.000000 0.000000 0.000000 0.000000 -0.633670 3.131710 -13.394102 1.737435 -0.682007 -2.879160 -4.139161 26.601386 -21.839608 0.000000 0.000000 0.000000 0.147290 4.970387 -18.736780 3.541539 -5.857862 2.858255 6.491399 6.641263 -40.869537 0.000000 0.000000 0.000000
33.277902 60.499627 346.523942 -0.177363 2.275414 19.475956 2.047220 2.946775 -19.602255 -0.715033 1.079191 -0.009162 2.013243 -4.663673 -0.207192 0.000000 0.000000 0.000000 20.066400 20.386496 5.545110 -14.172412 -1.157004 17.446991 -4.024694 -1.541759 -26.281592 27.627648 -38.797397 8.020278 0.000000 0.000000 0.000000 0.000000 0.000000 0.000000 3.108276 3.425567 4.076115 -9.558908 -20.753681 -9.536264 40.105956 19.798762 -9.791892 -10.655641 -9.522151 1.454385 0.000000 0.000000 0.000000 0.000000 0.000000 0.000000 -0.638995 2.430614 -16.744893 0.659191 -2.583623 -2.836618 -10.885519 35.275924 -22.802123 0.000000 0.000000 0.000000 -1.111944 2.717299 -21.792129 4.403931 -3.507691 2.425733 3.430374 4.246786 -30.251123 0.000000 0.000000 0.000000
33.529641 60.907581 346.289457 0.012557 3.365928 21.305285 1.806731 2.630233 -21.449919 -0.681018 1.180167 0.001080 4.746690 0.177639 0.430263 0.000000 0.000000 0.000000 28.866968 29.669207 5.557232 -24.642651 -5.525953 13.969230 -6.618869 -1.386936 -35.549519 37.413308 -35.069489 15.504001 0.000000 0.000000 0.000000 0.000000 0.000000 0.000000 2.631502 2.812562 4.184991 -9.036649 -20.904710 -9.542623 41.312073 24.571725 -10.784965 -13.439241 -9.026360 -1.099840 0.000000 0.000000 0.000000 0.000000 0.000000 0.000000 -3.017052 0.648416 -18.698946 3.285921 -0.875936 -2.801773 -16.555662 38.325736 -22.231720 0.000000 0.000000 0.000000 -1.925142 1.015902 -23.371750 3.252234 -5.267608 2.204063 1.242851 7.561426 -18.436495 0.000000 0.000000 0.000000
33.906753 61.230996 345.921588 0.299194 4.364451 22.759254 1.654619 2.289982 -22.913686 -0.620681 1.174969 0.024153 6.993243 4.741874 0.749013 0.000000 0.000000 0.000000 35.789290 36.358088 4.506526 -35.264165 -8.744613 7.350342 -3.366073 0.453771 -37.925527 41.966749 -34.354620 20.172108 0.000000 0.000000 0.000000 0.000000 0.000000 0.000000 1.689147 1.965619 4.055220 -8.214525 -20.707611 -9.320837 41.369562 30.208159 -11.408416 -14.145463 -19.868168 -0.511324 0.000000 0.000000 0.000000 0.000000 0.000000 0.000000 -4.650157 -0.841133 -20.506673 4.243294 -0.020632 -2.583537 -15.833687 39.316313 -23.295163 0.000000 0.000000 0.000000 -3.261712 -0.573910 -24.667781 2.465745 -5.921712 1.982055 0.043514 7.084196 -6.754738 0.000000 0.000000 0.000000
